<svg width="24" height="25" viewBox="0 0 24 25" fill="none" xmlns="http://www.w3.org/2000/svg">
<g id="vuesax/bold/receipt">
<g id="receipt">
<path id="Vector" d="M2 7.5V21.5C2 22.33 2.94 22.8 3.6 22.3L5.31 21.02C5.71 20.72 6.27 20.76 6.63 21.12L8.29 22.79C8.68 23.18 9.32 23.18 9.71 22.79L11.39 21.11C11.74 20.76 12.3 20.72 12.69 21.02L14.4 22.3C15.06 22.79 16 22.32 16 21.5V4.5C16 3.4 16.9 2.5 18 2.5H7H6C3 2.5 2 4.29 2 6.5V7.5Z" fill="#777777"/>
<path id="Vector_2" d="M18.01 2.5V4C18.67 4 19.3 4.27 19.76 4.72C20.24 5.21 20.5 5.84 20.5 6.5V8.92C20.5 9.66 20.17 10 19.42 10H17.5V4.51C17.5 4.23 17.73 4 18.01 4V2.5ZM18.01 2.5C16.9 2.5 16 3.4 16 4.51V11.5H19.42C21 11.5 22 10.5 22 8.92V6.5C22 5.4 21.55 4.4 20.83 3.67C20.1 2.95 19.11 2.51 18.01 2.5C18.02 2.5 18.01 2.5 18.01 2.5Z" fill="#777777"/>
</g>
</g>
</svg>
