<svg width="24" height="25" viewBox="0 0 24 25" fill="none" xmlns="http://www.w3.org/2000/svg">
<g id="vuesax/bulk/add-circle">
<g id="add-circle">
<path id="Subtract" fill-rule="evenodd" clip-rule="evenodd" d="M22 12.0547C22 17.5775 17.5228 22.0547 12 22.0547C6.47715 22.0547 2 17.5775 2 12.0547C2 6.53184 6.47715 2.05469 12 2.05469C17.5228 2.05469 22 6.53184 22 12.0547ZM12.75 11.3047H16C16.41 11.3047 16.75 11.6447 16.75 12.0547C16.75 12.4647 16.41 12.8047 16 12.8047H12.75V16.0547C12.75 16.4647 12.41 16.8047 12 16.8047C11.59 16.8047 11.25 16.4647 11.25 16.0547V12.8047H8C7.59 12.8047 7.25 12.4647 7.25 12.0547C7.25 11.6447 7.59 11.3047 8 11.3047H11.25V8.05469C11.25 7.64469 11.59 7.30469 12 7.30469C12.41 7.30469 12.75 7.64469 12.75 8.05469V11.3047Z" fill="#777777"/>
</g>
</g>
</svg>
