<svg width="24" height="25" viewBox="0 0 24 25" fill="none" xmlns="http://www.w3.org/2000/svg">
<g id="vuesax/linear/ethereum-(eth)">
<g id="ethereum-(eth)">
<g id="Group">
<path id="Vector" d="M10.4506 3.54957L6.71063 8.20957C5.86063 9.26957 6.16063 10.6296 7.37063 11.2296L11.1006 13.0996C11.5906 13.3396 12.3906 13.3396 12.8806 13.0996L16.6106 11.2296C17.8206 10.6196 18.1206 9.25957 17.2706 8.20957L13.5406 3.54957C12.7006 2.47957 11.3006 2.47957 10.4506 3.54957Z" stroke="#777777" stroke-width="1.5" stroke-miterlimit="10" stroke-linecap="round" stroke-linejoin="round"/>
<path id="Vector_2" d="M12 2.7998V8.0598" stroke="#777777" stroke-width="1.5" stroke-miterlimit="10" stroke-linecap="round" stroke-linejoin="round"/>
<path id="Vector_3" d="M7.80078 11.2096L12.0008 8.05957L16.2008 11.2096" stroke="#777777" stroke-width="1.5" stroke-miterlimit="10" stroke-linecap="round" stroke-linejoin="round"/>
<path id="Vector_4" d="M8.77011 14.9292L10.3801 15.6492C11.4101 16.1092 12.5901 16.1092 13.6301 15.6492L15.2401 14.9292C16.6801 14.2892 18.0101 16.0292 17.0101 17.2492L13.5501 21.4792C12.7001 22.5192 11.3101 22.5192 10.4501 21.4792L7.00011 17.2492C5.99011 16.0292 7.32011 14.2892 8.77011 14.9292Z" stroke="#777777" stroke-width="1.5" stroke-miterlimit="10" stroke-linecap="round" stroke-linejoin="round"/>
</g>
</g>
</g>
</svg>
