<svg width="17" height="17" viewBox="0 0 17 17" fill="none" xmlns="http://www.w3.org/2000/svg">
<g clip-path="url(#clip0_707_179)">
<path d="M0.36898 7.60573C0.385619 7.60822 0.402159 7.60942 0.418532 7.60942C0.580207 7.60942 0.721921 7.49115 0.746565 7.32645C0.817173 6.85452 0.93182 6.38693 1.08728 5.93668C1.14716 5.76331 1.05513 5.57424 0.88177 5.51436C0.708371 5.45454 0.51933 5.54647 0.459449 5.71987C0.2907 6.20851 0.166289 6.71599 0.0896363 7.22815C0.0625023 7.40955 0.187578 7.5786 0.36898 7.60573Z" fill="#5ED5A8"/>
<path d="M3.30105 2.525C3.37552 2.525 3.45041 2.50009 3.51235 2.44904C3.88053 2.14506 4.27831 1.87355 4.69465 1.64197C4.85497 1.55279 4.91262 1.35057 4.82345 1.19025C4.73431 1.02997 4.53205 0.972318 4.37177 1.06146C3.92019 1.31264 3.48873 1.60713 3.08946 1.93675C2.94798 2.05353 2.92799 2.26286 3.04476 2.40431C3.11042 2.48388 3.20537 2.525 3.30105 2.525Z" fill="#5ED5A8"/>
<path d="M14.9027 3.97621C14.9674 4.06774 15.07 4.11663 15.1742 4.11663C15.2404 4.11663 15.3074 4.0968 15.3656 4.05562C15.5154 3.94971 15.551 3.74247 15.445 3.59271C15.1466 3.17063 14.8075 2.77331 14.4372 2.41184C14.3059 2.28371 14.0956 2.28626 13.9675 2.41752C13.8394 2.5488 13.8419 2.75907 13.9732 2.8872C14.3147 3.22058 14.6275 3.58697 14.9027 3.97621Z" fill="#5ED5A8"/>
<path d="M1.22483 4.75722C1.27661 4.78661 1.33294 4.80059 1.3885 4.80059C1.50411 4.80059 1.61643 4.74008 1.67761 4.63238C1.91285 4.21803 2.18791 3.82257 2.49515 3.45695C2.61315 3.31649 2.59499 3.10703 2.45457 2.98903C2.31411 2.87096 2.10461 2.88919 1.98664 3.02961C1.65346 3.42612 1.35516 3.85502 1.09999 4.30441C1.00945 4.46393 1.06532 4.66665 1.22483 4.75722Z" fill="#5ED5A8"/>
<path d="M11.6047 1.29817C12.042 1.48714 12.4647 1.71797 12.8612 1.98419C12.918 2.02232 12.9823 2.04059 13.046 2.04059C13.153 2.04059 13.2579 1.98901 13.322 1.89359C13.4243 1.74131 13.3837 1.53497 13.2314 1.43271C12.8013 1.14393 12.3427 0.893551 11.8683 0.688469C11.6999 0.615702 11.5044 0.693218 11.4317 0.861568C11.3589 1.02992 11.4364 1.22544 11.6047 1.29817Z" fill="#5ED5A8"/>
<path d="M8.82438 0.664876C9.30249 0.684538 9.77984 0.747939 10.2432 0.853386C10.268 0.859032 10.2928 0.861722 10.3172 0.861722C10.4688 0.861722 10.6056 0.757271 10.6407 0.603235C10.6814 0.42439 10.5694 0.246408 10.3905 0.205691C9.88785 0.0913093 9.37008 0.0225277 8.85161 0.00123899C8.66871 -0.00596796 8.51368 0.136145 8.50614 0.319441C8.49864 0.50267 8.64108 0.657337 8.82438 0.664876Z" fill="#5ED5A8"/>
<path d="M16.0963 6.56433C16.1344 6.71475 16.2696 6.81491 16.418 6.81491C16.445 6.81491 16.4724 6.81163 16.4999 6.80465C16.6777 6.75958 16.7852 6.57894 16.7402 6.40113C16.613 5.89966 16.4386 5.4071 16.2216 4.93715C16.1448 4.77063 15.9475 4.6979 15.7809 4.77482C15.6144 4.8517 15.5417 5.04901 15.6186 5.21557C15.8184 5.64855 15.9792 6.10236 16.0963 6.56433Z" fill="#5ED5A8"/>
<path d="M5.89661 1.08114C5.93165 1.08114 5.96729 1.07553 6.00229 1.06384C6.45377 0.912327 6.92236 0.801765 7.39499 0.735242C7.5766 0.709669 7.70313 0.541717 7.67756 0.360082C7.65199 0.17838 7.48394 0.0520098 7.3024 0.0774832C6.78948 0.149686 6.28097 0.269646 5.791 0.434078C5.6171 0.492431 5.52345 0.680708 5.5818 0.854605C5.62839 0.99343 5.75782 1.08114 5.89661 1.08114Z" fill="#5ED5A8"/>
<path d="M16.2492 11.108C16.0779 11.0424 15.8858 11.1281 15.8202 11.2993C15.6498 11.7441 15.437 12.1761 15.1876 12.5834C15.0918 12.7398 15.141 12.9442 15.2974 13.0401C15.3515 13.0732 15.4114 13.089 15.4705 13.089C15.5823 13.089 15.6914 13.0326 15.7541 12.9303C16.0246 12.4884 16.2556 12.0196 16.4405 11.5369C16.5061 11.3657 16.4205 11.1736 16.2492 11.108Z" fill="#5ED5A8"/>
<path d="M16.982 7.9345C16.97 7.75147 16.812 7.61284 16.6289 7.62473C16.4459 7.63666 16.3072 7.79475 16.3191 7.97778C16.3303 8.14935 16.336 8.32381 16.336 8.49634C16.336 8.97542 16.2925 9.4551 16.2067 9.92209C16.1736 10.1025 16.2929 10.2756 16.4733 10.3087C16.4936 10.3125 16.5138 10.3143 16.5337 10.3143C16.6909 10.3143 16.8306 10.2022 16.86 10.0421C16.9531 9.53564 17.0002 9.01558 17.0002 8.49638C17.0002 8.30946 16.9941 8.12042 16.982 7.9345Z" fill="#5ED5A8"/>
<path d="M9.3431 16.2889C8.87159 16.3395 8.38521 16.3474 7.91131 16.3124C7.72878 16.2986 7.56916 16.4361 7.55561 16.6191C7.54206 16.802 7.67939 16.9612 7.86232 16.9748C8.07242 16.9903 8.28627 16.9982 8.49796 16.9982C8.80371 16.9982 9.11185 16.9818 9.41391 16.9494C9.59627 16.9299 9.72829 16.7662 9.70873 16.5838C9.68917 16.4014 9.52556 16.2699 9.3431 16.2889Z" fill="#5ED5A8"/>
<path d="M12.0744 15.4733C11.6499 15.6913 11.2033 15.871 10.7469 16.0074C10.5711 16.0599 10.4712 16.2449 10.5238 16.4207C10.5668 16.5647 10.6988 16.6578 10.8419 16.6578C10.8733 16.6578 10.9054 16.6533 10.9371 16.6438C11.4324 16.4958 11.9172 16.3007 12.3779 16.0641C12.541 15.9803 12.6054 15.7801 12.5216 15.617C12.4378 15.4538 12.2376 15.3895 12.0744 15.4733Z" fill="#5ED5A8"/>
<path d="M0.840238 10.1763C0.738876 9.71214 0.679626 9.23423 0.66405 8.75584C0.658105 8.57252 0.505497 8.4299 0.321304 8.43469C0.137975 8.44063 -0.00579824 8.5941 0.000179872 8.77743C0.0170182 9.2961 0.0813162 9.81443 0.19128 10.318C0.225189 10.4734 0.362686 10.5793 0.515427 10.5793C0.538908 10.5793 0.562721 10.5768 0.5866 10.5716C0.76581 10.5325 0.879361 10.3556 0.840238 10.1763Z" fill="#5ED5A8"/>
<path d="M14.8001 13.7062C14.6636 13.5835 14.4536 13.5948 14.3311 13.7313C14.0122 14.0863 13.6592 14.4141 13.2816 14.7054C13.1364 14.8175 13.1095 15.026 13.2215 15.1712C13.287 15.256 13.3853 15.3005 13.4847 15.3005C13.5555 15.3005 13.6269 15.2779 13.6874 15.2313C14.0968 14.9154 14.4796 14.56 14.8253 14.1751C14.9479 14.0387 14.9366 13.8287 14.8001 13.7062Z" fill="#5ED5A8"/>
<path d="M3.92225 14.8606C3.5354 14.582 3.17174 14.266 2.84131 13.9216C2.71431 13.7892 2.50411 13.7848 2.37173 13.9118C2.23938 14.0388 2.235 14.249 2.36197 14.3814C2.72022 14.7549 3.11454 15.0974 3.53401 15.3996C3.59276 15.4419 3.66061 15.4623 3.72787 15.4623C3.83102 15.4623 3.93272 15.4144 3.99761 15.3242C4.10482 15.1755 4.07108 14.9679 3.92225 14.8606Z" fill="#5ED5A8"/>
<path d="M1.27297 11.54C1.20166 11.371 1.00687 11.2918 0.837858 11.3631C0.668877 11.4344 0.589667 11.6292 0.660972 11.7982C0.861837 12.2743 1.1081 12.735 1.39299 13.1674C1.45683 13.2643 1.56267 13.3169 1.67064 13.3169C1.73335 13.3169 1.79675 13.2991 1.85304 13.262C2.00621 13.1611 2.04859 12.9552 1.9477 12.802C1.68509 12.4034 1.45809 11.9787 1.27297 11.54Z" fill="#5ED5A8"/>
<path d="M6.49867 16.0772C6.03783 15.9561 5.58532 15.7913 5.15373 15.5875C4.9878 15.5092 4.78989 15.5802 4.71158 15.746C4.63323 15.9119 4.70421 16.1099 4.87007 16.1882C5.33849 16.4094 5.82959 16.5882 6.32979 16.7196C6.35809 16.7271 6.38648 16.7306 6.41445 16.7306C6.56171 16.7306 6.69625 16.632 6.73544 16.4828C6.78207 16.3054 6.67606 16.1238 6.49867 16.0772Z" fill="#5ED5A8"/>
<path d="M1.45703 8.49597C1.45703 12.3783 4.61557 15.5369 8.49792 15.5369C12.3803 15.5369 15.5388 12.3783 15.5388 8.49597C15.5388 4.61362 12.3803 1.45508 8.49792 1.45508C4.61557 1.45508 1.45703 4.61362 1.45703 8.49597ZM8.49792 2.11931C12.014 2.11931 14.8746 4.97987 14.8746 8.49597C14.8746 12.0121 12.014 14.8726 8.49792 14.8726C4.98183 14.8726 2.12127 12.0121 2.12127 8.49597C2.12127 4.97987 4.98183 2.11931 8.49792 2.11931Z" fill="#5ED5A8"/>
<path d="M6.77161 3.76674C6.80718 3.76674 6.84335 3.76096 6.87888 3.74891C7.39878 3.57156 7.94379 3.48162 8.49869 3.48162C8.68212 3.48162 8.83081 3.3329 8.83081 3.1495C8.83081 2.96611 8.68212 2.81738 8.49869 2.81738C7.87065 2.81738 7.25355 2.91928 6.66444 3.12021C6.49084 3.17942 6.39811 3.36813 6.45733 3.54176C6.50442 3.67983 6.63342 3.76674 6.77161 3.76674Z" fill="#5ED5A8"/>
<path d="M3.15048 8.82888C3.33391 8.82888 3.48259 8.68015 3.48259 8.49673C3.48259 6.92601 4.19791 5.47562 5.44514 4.51736C5.59058 4.40564 5.61791 4.19714 5.50615 4.05167C5.39439 3.9062 5.18586 3.8789 5.04046 3.99066C3.62829 5.07562 2.81836 6.71804 2.81836 8.49676C2.81836 8.68016 2.96705 8.82888 3.15048 8.82888Z" fill="#5ED5A8"/>
</g>
<defs>
<clipPath id="clip0_707_179">
<rect width="17" height="17" fill="white"/>
</clipPath>
</defs>
</svg>
