<svg width="40" height="40" viewBox="0 0 40 40" fill="none" xmlns="http://www.w3.org/2000/svg">
<g id="Limit Buy/Sell Buy">
<rect id="Rectangle 44" opacity="0.1" width="40" height="40" rx="20" fill="#5ED5A8"/>
<path id="L/B" d="M11.0718 24V16.835H13.3568C13.7968 16.835 14.1752 16.8783 14.4918 16.965C14.8118 17.0517 15.0735 17.175 15.2768 17.335C15.4835 17.495 15.6352 17.6917 15.7318 17.925C15.8318 18.155 15.8818 18.415 15.8818 18.705C15.8818 18.8817 15.8535 19.0517 15.7968 19.215C15.7435 19.3783 15.6602 19.53 15.5468 19.67C15.4368 19.81 15.2968 19.935 15.1268 20.045C14.9602 20.155 14.7635 20.245 14.5368 20.315C15.0602 20.4183 15.4552 20.6067 15.7218 20.88C15.9885 21.1533 16.1218 21.5133 16.1218 21.96C16.1218 22.2633 16.0652 22.54 15.9518 22.79C15.8418 23.04 15.6785 23.255 15.4618 23.435C15.2485 23.615 14.9852 23.755 14.6718 23.855C14.3618 23.9517 14.0068 24 13.6068 24H11.0718ZM12.0418 20.735V23.23H13.5918C13.8685 23.23 14.1052 23.1983 14.3018 23.135C14.5018 23.0717 14.6652 22.9833 14.7918 22.87C14.9218 22.7533 15.0168 22.6167 15.0768 22.46C15.1368 22.3 15.1668 22.125 15.1668 21.935C15.1668 21.565 15.0352 21.2733 14.7718 21.06C14.5118 20.8433 14.1168 20.735 13.5868 20.735H12.0418ZM12.0418 20.045H13.3218C13.5952 20.045 13.8318 20.015 14.0318 19.955C14.2318 19.895 14.3968 19.8117 14.5268 19.705C14.6602 19.5983 14.7585 19.47 14.8218 19.32C14.8852 19.1667 14.9168 19 14.9168 18.82C14.9168 18.4 14.7902 18.0917 14.5368 17.895C14.2835 17.6983 13.8902 17.6 13.3568 17.6H12.0418V20.045ZM20.5954 23.23C20.8921 23.23 21.1571 23.18 21.3904 23.08C21.6238 22.98 21.8204 22.84 21.9804 22.66C22.1438 22.48 22.2671 22.265 22.3504 22.015C22.4371 21.765 22.4804 21.49 22.4804 21.19V16.835H23.4454V21.19C23.4454 21.6033 23.3788 21.9867 23.2454 22.34C23.1154 22.6933 22.9271 23 22.6804 23.26C22.4371 23.5167 22.1388 23.7183 21.7854 23.865C21.4321 24.0117 21.0354 24.085 20.5954 24.085C20.1554 24.085 19.7588 24.0117 19.4054 23.865C19.0521 23.7183 18.7521 23.5167 18.5054 23.26C18.2588 23 18.0688 22.6933 17.9354 22.34C17.8054 21.9867 17.7404 21.6033 17.7404 21.19V16.835H18.7054V21.185C18.7054 21.485 18.7471 21.76 18.8304 22.01C18.9171 22.26 19.0404 22.475 19.2004 22.655C19.3638 22.835 19.5621 22.9767 19.7954 23.08C20.0321 23.18 20.2988 23.23 20.5954 23.23ZM28.1391 21.15V24H27.1741V21.15L24.5491 16.835H25.3991C25.4858 16.835 25.5541 16.8567 25.6041 16.9C25.6541 16.9433 25.6975 16.9967 25.7341 17.06L27.3741 19.845C27.4408 19.9617 27.4958 20.0717 27.5391 20.175C27.5858 20.2783 27.6275 20.38 27.6641 20.48C27.7008 20.3767 27.7408 20.2733 27.7841 20.17C27.8275 20.0667 27.8825 19.9583 27.9491 19.845L29.5841 17.06C29.6141 17.0067 29.6541 16.9567 29.7041 16.91C29.7575 16.86 29.8258 16.835 29.9091 16.835H30.7691L28.1391 21.15Z" fill="#5ED5A8"/>
</g>
</svg>
