<svg width="17" height="17" viewBox="0 0 17 17" fill="none" xmlns="http://www.w3.org/2000/svg">
<g id="dollar 1" clip-path="url(#clip0_707_1332)">
<g id="Group">
<g id="Group_2">
<path id="Vector" d="M8.5 0C3.81331 0 0 3.81331 0 8.5C0 13.1867 3.81331 17 8.5 17C13.1867 17 17 13.1867 17 8.5C17 3.81331 13.1867 0 8.5 0ZM8.5 15.9375C4.39875 15.9375 1.0625 12.6012 1.0625 8.5C1.0625 4.39875 4.39875 1.0625 8.5 1.0625C12.6012 1.0625 15.9375 4.39875 15.9375 8.5C15.9375 12.6012 12.6012 15.9375 8.5 15.9375Z" fill="#5ED5A8"/>
</g>
</g>
<g id="Group_3">
<g id="Group_4">
<path id="Vector_2" d="M8.5 7.96875C7.63619 7.96875 6.90625 7.48213 6.90625 6.90625C6.90625 6.33037 7.63619 5.84375 8.5 5.84375C8.98875 5.84375 9.44138 5.99675 9.741 6.26238C9.95988 6.45681 10.2946 6.43875 10.4911 6.21775C10.6866 5.99888 10.6664 5.66312 10.4465 5.46762C10.0746 5.13719 9.57525 4.91406 9.03125 4.82587V4.25C9.03125 3.95675 8.79325 3.71875 8.5 3.71875C8.20675 3.71875 7.96875 3.95675 7.96875 4.25V4.82375C6.7575 5.02137 5.84375 5.87987 5.84375 6.90625C5.84375 8.07819 7.03587 9.03125 8.5 9.03125C9.36381 9.03125 10.0938 9.51788 10.0938 10.0938C10.0938 10.6696 9.36381 11.1562 8.5 11.1562C8.01125 11.1562 7.55862 11.0033 7.259 10.7376C7.04012 10.5421 6.70437 10.5612 6.50887 10.7822C6.31337 11.0011 6.33356 11.3369 6.5535 11.5324C6.92538 11.8639 7.42475 12.0859 7.96875 12.1752V12.75C7.96875 13.0433 8.20675 13.2812 8.5 13.2812C8.79325 13.2812 9.03125 13.0433 9.03125 12.75V12.1763C10.2425 11.9786 11.1562 11.1201 11.1562 10.0938C11.1562 8.92181 9.96413 7.96875 8.5 7.96875Z" fill="#5ED5A8"/>
</g>
</g>
</g>
<defs>
<clipPath id="clip0_707_1332">
<rect width="17" height="17" fill="white"/>
</clipPath>
</defs>
</svg>
