<svg width="46" height="54" viewBox="0 0 46 54" fill="none" xmlns="http://www.w3.org/2000/svg">
<g filter="url(#filter0_d_567_10690)">
<path d="M21.8256 13.0496L18.0856 17.7096C17.2356 18.7696 17.5356 20.1296 18.7456 20.7296L22.4756 22.5996C22.9656 22.8396 23.7656 22.8396 24.2556 22.5996L27.9856 20.7296C29.1956 20.1196 29.4956 18.7596 28.6456 17.7096L24.9156 13.0496C24.0756 11.9796 22.6756 11.9796 21.8256 13.0496Z" stroke="#5ED5A8" stroke-width="1.5" stroke-miterlimit="10" stroke-linecap="round" stroke-linejoin="round"/>
<path d="M23.375 12.2998V17.5598" stroke="#5ED5A8" stroke-width="1.5" stroke-miterlimit="10" stroke-linecap="round" stroke-linejoin="round"/>
<path d="M19.1758 20.7096L23.3758 17.5596L27.5758 20.7096" stroke="#5ED5A8" stroke-width="1.5" stroke-miterlimit="10" stroke-linecap="round" stroke-linejoin="round"/>
<path d="M20.1451 24.4292L21.7551 25.1492C22.7851 25.6092 23.9651 25.6092 25.0051 25.1492L26.6151 24.4292C28.0551 23.7892 29.3851 25.5292 28.3851 26.7492L24.9251 30.9792C24.0751 32.0192 22.6851 32.0192 21.8251 30.9792L18.3751 26.7492C17.3651 25.5292 18.6951 23.7892 20.1451 24.4292Z" stroke="#5ED5A8" stroke-width="1.5" stroke-miterlimit="10" stroke-linecap="round" stroke-linejoin="round"/>
</g>
<defs>
<filter id="filter0_d_567_10690" x="0.851562" y="0.49707" width="45.0273" height="53.0117" filterUnits="userSpaceOnUse" color-interpolation-filters="sRGB">
<feFlood flood-opacity="0" result="BackgroundImageFix"/>
<feColorMatrix in="SourceAlpha" type="matrix" values="0 0 0 0 0 0 0 0 0 0 0 0 0 0 0 0 0 0 127 0" result="hardAlpha"/>
<feOffset dy="5"/>
<feGaussianBlur stdDeviation="8"/>
<feComposite in2="hardAlpha" operator="out"/>
<feColorMatrix type="matrix" values="0 0 0 0 0.368627 0 0 0 0 0.835294 0 0 0 0 0.658824 0 0 0 0.25 0"/>
<feBlend mode="normal" in2="BackgroundImageFix" result="effect1_dropShadow_567_10690"/>
<feBlend mode="normal" in="SourceGraphic" in2="effect1_dropShadow_567_10690" result="shape"/>
</filter>
</defs>
</svg>
