<svg width="17" height="17" viewBox="0 0 17 17" fill="none" xmlns="http://www.w3.org/2000/svg">
<g id="group 1" clip-path="url(#clip0_707_348)">
<g id="Group">
<g id="Group_2">
<path id="Vector" d="M14.5452 9.0752H13.2305C13.3645 9.44209 13.4377 9.83804 13.4377 10.2507V15.2196C13.4377 15.3916 13.4077 15.5568 13.3533 15.7104H15.5268C16.3387 15.7104 16.9992 15.0498 16.9992 14.238V11.5292C16.9992 10.1761 15.8983 9.0752 14.5452 9.0752Z" fill="#5ED5A8"/>
</g>
</g>
<g id="Group_3">
<g id="Group_4">
<path id="Vector_2" d="M3.56154 10.2507C3.56154 9.838 3.63475 9.44209 3.76876 9.0752H2.45405C1.10089 9.0752 0 10.1761 0 11.5292V14.238C0 15.0499 0.660511 15.7104 1.47243 15.7104H3.64598C3.59149 15.5568 3.56154 15.3916 3.56154 15.2196V10.2507Z" fill="#5ED5A8"/>
</g>
</g>
<g id="Group_5">
<g id="Group_6">
<path id="Vector_3" d="M10.0026 7.79688H6.99702C5.64385 7.79688 4.54297 8.89776 4.54297 10.2509V15.2198C4.54297 15.4908 4.76271 15.7106 5.03378 15.7106H11.9659C12.2369 15.7106 12.4567 15.4909 12.4567 15.2198V10.2509C12.4567 8.89776 11.3558 7.79688 10.0026 7.79688Z" fill="#5ED5A8"/>
</g>
</g>
<g id="Group_7">
<g id="Group_8">
<path id="Vector_4" d="M8.50012 1.29004C6.87277 1.29004 5.54883 2.61398 5.54883 4.24137C5.54883 5.34521 6.15807 6.30927 7.05781 6.81541C7.48457 7.05547 7.97658 7.19267 8.50012 7.19267C9.02367 7.19267 9.51568 7.05547 9.94244 6.81541C10.8422 6.30927 11.4514 5.34518 11.4514 4.24137C11.4514 2.61402 10.1275 1.29004 8.50012 1.29004Z" fill="#5ED5A8"/>
</g>
</g>
<g id="Group_9">
<g id="Group_10">
<path id="Vector_5" d="M3.31851 4.04004C2.10145 4.04004 1.11133 5.03016 1.11133 6.24722C1.11133 7.46428 2.10145 8.4544 3.31851 8.4544C3.62723 8.4544 3.92121 8.39045 4.18827 8.27551C4.64999 8.07672 5.0307 7.72483 5.26628 7.28406C5.43163 6.9747 5.52569 6.62179 5.52569 6.24722C5.52569 5.03019 4.53557 4.04004 3.31851 4.04004Z" fill="#5ED5A8"/>
</g>
</g>
<g id="Group_11">
<g id="Group_12">
<path id="Vector_6" d="M13.6818 4.04004C12.4647 4.04004 11.4746 5.03016 11.4746 6.24722C11.4746 6.62182 11.5687 6.97474 11.734 7.28406C11.9696 7.72486 12.3503 8.07675 12.812 8.27551C13.0791 8.39045 13.3731 8.4544 13.6818 8.4544C14.8989 8.4544 15.889 7.46428 15.889 6.24722C15.889 5.03016 14.8989 4.04004 13.6818 4.04004Z" fill="#5ED5A8"/>
</g>
</g>
</g>
<defs>
<clipPath id="clip0_707_348">
<rect width="17" height="17" fill="white"/>
</clipPath>
</defs>
</svg>
