<svg width="24" height="25" viewBox="15 9 24 25" fill="none" xmlns="http://www.w3.org/2000/svg">
<g id="vuesax/bold/home"> <!-- filter="url(#filter0_d_681_488)" -->
<g id="home">
<path id="Vector" d="M35.83 17.51L29.28 12.27C28 11.25 26 11.24 24.73 12.26L18.18 17.51C17.24 18.26 16.67 19.76 16.87 20.94L18.13 28.48C18.42 30.17 19.99 31.5 21.7 31.5H32.3C33.99 31.5 35.59 30.14 35.88 28.47L37.14 20.93C37.32 19.76 36.75 18.26 35.83 17.51ZM27.75 27.5C27.75 27.91 27.41 28.25 27 28.25C26.59 28.25 26.25 27.91 26.25 27.5V24.5C26.25 24.09 26.59 23.75 27 23.75C27.41 23.75 27.75 24.09 27.75 24.5V27.5Z" fill="#777777"/>
</g>
</g>
<defs>
<filter id="filter0_d_681_488" x="0.830078" y="0.5" width="52.3438" height="52" filterUnits="userSpaceOnUse" color-interpolation-filters="sRGB">
<feFlood flood-opacity="0" result="BackgroundImageFix"/>
<feColorMatrix in="SourceAlpha" type="matrix" values="0 0 0 0 0 0 0 0 0 0 0 0 0 0 0 0 0 0 127 0" result="hardAlpha"/>
<feOffset dy="5"/>
<feGaussianBlur stdDeviation="8"/>
<feComposite in2="hardAlpha" operator="out"/>
<feColorMatrix type="matrix" values="0 0 0 0 0.368627 0 0 0 0 0.835294 0 0 0 0 0.658824 0 0 0 0.25 0"/>
<feBlend mode="normal" in2="BackgroundImageFix" result="effect1_dropShadow_681_488"/>
<feBlend mode="normal" in="SourceGraphic" in2="effect1_dropShadow_681_488" result="shape"/>
</filter>
</defs>
</svg>
