<svg width="150" height="211" viewBox="0 0 150 211" fill="none" xmlns="http://www.w3.org/2000/svg">
<g id="Layer 3">
<path id="Vector" d="M149.998 201.179C149.998 202.462 147.691 203.683 143.544 204.783C137.299 206.437 126.9 207.816 113.932 208.755C111.092 208.959 108.125 209.142 105.057 209.293C103.113 209.393 101.127 209.483 99.0973 209.562C91.5457 209.866 83.4508 210.03 75.0332 210.03H74.9955C69.7217 210.03 64.5743 209.965 59.6071 209.844C53.4997 209.693 47.6638 209.454 42.2018 209.139C39.9373 209.01 37.7393 208.867 35.6075 208.709C34.4152 208.623 33.2499 208.533 32.1114 208.44C25.4472 207.902 19.5737 207.217 14.7356 206.447C13.4985 206.248 12.3331 206.045 11.2394 205.837C9.45641 205.498 7.86163 205.143 6.47394 204.775C2.31891 203.675 0.0195312 202.454 0.0195312 201.171C0.0195312 197.379 20.1896 194.144 48.5325 192.877L51.687 192.745C59.0316 192.476 66.8737 192.31 75.0197 192.31C76.3052 192.31 77.5818 192.31 78.8493 192.31C81.5978 192.326 84.3042 192.359 86.9684 192.409C95.5205 192.573 103.589 192.904 110.917 193.38C111.944 193.444 112.956 193.513 113.953 193.584C135.557 195.158 149.998 197.968 149.998 201.179Z" fill="#CEEAE9"/>
<path id="Vector_2" d="M143.539 204.782C137.302 206.436 126.902 207.816 113.934 208.754C111.094 208.959 108.128 209.142 105.06 209.292C103.116 209.393 101.13 209.482 99.1 209.561C91.5483 209.865 83.4534 210.029 75.0358 210.029H74.9981C69.7244 210.029 64.577 209.965 59.6098 209.844C53.5023 209.693 47.6664 209.454 42.2044 209.139C39.94 209.01 37.7419 208.867 35.6101 208.709C34.4179 208.623 33.2525 208.533 32.114 208.44C25.4498 207.902 19.5763 207.216 14.7382 206.447C13.5011 206.248 12.3357 206.045 11.2421 205.837C9.45904 205.498 7.86426 205.143 6.47656 204.774C14.5984 202.623 29.7689 200.923 48.527 200.084L51.6816 199.952C59.0262 199.683 66.8683 199.517 75.0143 199.517C76.2998 199.517 77.5763 199.517 78.8439 199.517C81.5924 199.533 84.2988 199.566 86.963 199.616C95.5151 199.78 103.583 200.111 110.912 200.587C111.939 200.651 112.951 200.72 113.948 200.791C126.902 201.743 137.302 203.128 143.539 204.782Z" fill="#364E4C"/>
<path id="Vector_3" d="M0 8.84791C0 7.5651 2.30745 6.34414 6.4544 5.2442C12.699 3.59026 23.0933 2.20526 36.0667 1.27474C38.9066 1.07036 41.873 0.887481 44.9415 0.736878C46.885 0.638269 48.8715 0.548624 50.9011 0.467944C58.4527 0.164049 66.5476 0 74.9652 0H74.9975C80.2713 0 85.4187 0.0645442 90.3859 0.185564C96.4934 0.336167 102.329 0.575518 107.791 0.89017C110.056 1.01926 112.254 1.16269 114.386 1.32046C115.576 1.40652 116.741 1.49617 117.882 1.5894C124.546 2.12726 130.419 2.81305 135.257 3.5822C136.495 3.78121 137.66 3.9847 138.754 4.19267C140.537 4.53153 142.131 4.88652 143.519 5.25496C147.674 6.3549 149.973 7.57586 149.973 8.85867C149.973 12.6506 129.803 15.8859 101.461 17.1526L98.306 17.2844C90.9614 17.5667 83.1193 17.72 74.9733 17.72C73.6878 17.72 72.4113 17.72 71.1437 17.72C68.3952 17.7039 65.6888 17.6707 63.0246 17.6205C54.4725 17.4565 46.4045 17.1257 39.0895 16.6497C38.0622 16.5851 37.0501 16.517 36.0532 16.4453C14.4417 14.8693 0 12.059 0 8.84791Z" fill="#CEEAE9"/>
<path id="Vector_4" d="M6.46484 5.2442C12.7014 3.59026 23.0957 2.20526 36.069 1.27474C38.909 1.07036 41.8753 0.887481 44.9439 0.736878C46.8873 0.638269 48.8739 0.548624 50.9034 0.467944C58.4551 0.164049 66.55 0 74.9676 0H74.9999C80.2737 0 85.421 0.0645442 90.3882 0.185564C96.4957 0.336167 102.332 0.575518 107.794 0.89017C110.058 1.01926 112.256 1.16269 114.388 1.32046C115.578 1.40652 116.744 1.49617 117.884 1.5894C124.548 2.12726 130.422 2.81305 135.26 3.5822C136.497 3.78121 137.662 3.9847 138.756 4.19267C140.539 4.53153 142.134 4.88652 143.521 5.25496C135.4 7.40643 120.229 9.10609 101.471 9.94516L98.3164 10.0769C90.9718 10.3459 83.1297 10.5126 74.9837 10.5126C73.6982 10.5126 72.4217 10.5126 71.1541 10.5126C68.4056 10.4965 65.6992 10.4633 63.035 10.4131C54.4829 10.2491 46.4149 9.91827 39.0999 9.44226C38.0726 9.37771 37.0605 9.30958 36.0637 9.23787C23.0957 8.28315 12.7014 6.89814 6.46484 5.2442Z" fill="#364E4C"/>
<path id="Vector_5" d="M23.0472 31.2607H19.543V39.439H23.0472V31.2607Z" fill="url(#paint0_linear_567_11577)"/>
<path id="Vector_6" d="M107.742 56.8555H104.238V65.0337H107.742V56.8555Z" fill="url(#paint1_linear_567_11577)"/>
<path id="Vector_7" d="M3.9611 37.5332H1.94141V42.2449H3.9611V37.5332Z" fill="url(#paint2_linear_567_11577)"/>
<path id="Vector_8" d="M24.0548 84.9482H22.0352V89.66H24.0548V84.9482Z" fill="url(#paint3_linear_567_11577)"/>
<path id="Vector_9" d="M110.504 28.9053H108.484V33.617H110.504V28.9053Z" fill="url(#paint4_linear_567_11577)"/>
<path id="Vector_10" d="M130.914 57.7158H128.895V62.4275H130.914V57.7158Z" fill="url(#paint5_linear_567_11577)"/>
<path id="Vector_11" d="M126.106 90.5391H124.086V95.2508H126.106V90.5391Z" fill="url(#paint6_linear_567_11577)"/>
<path id="Vector_12" d="M59.6124 204.782V209.854C53.5049 209.703 47.6691 209.464 42.207 209.149V204.548H45.9533V197.655H48.5216V189.361H51.6762V199.29H55.0163V204.782H59.6124Z" fill="url(#paint7_linear_567_11577)"/>
<path id="Vector_13" d="M99.0954 205.25V209.571C91.5438 209.875 83.4489 210.039 75.0312 210.039V204.08H77.7206V198.007H80.6439V195.552H82.6313V193.218H78.8286V186.908H81.5744V189.361H83.6775V182.234H86.9477V194.151H90.3255V196.956H92.6598V200.928H89.5187V203.031H96.7638V205.25H99.0954Z" fill="url(#paint8_linear_567_11577)"/>
<path id="Vector_14" d="M113.937 190.414V208.755C111.097 208.96 108.131 209.143 105.062 209.293V204.426H107.865V197.366H110.904V190.414H113.937Z" fill="url(#paint9_linear_567_11577)"/>
<path id="Vector_15" d="M35.6133 203.285V208.72C34.4211 208.634 33.2557 208.545 32.1172 208.451V203.288L35.6133 203.285Z" fill="url(#paint10_linear_567_11577)"/>
<path id="Vector_16" d="M75.7308 181.437H72.2266V189.615H75.7308V181.437Z" fill="url(#paint11_linear_567_11577)"/>
<path id="Vector_17" d="M105.989 184.902H102.484V193.081H105.989V184.902Z" fill="url(#paint12_linear_567_11577)"/>
<path id="Vector_18" d="M128.602 179.879H125.098V188.057H128.602V179.879Z" fill="url(#paint13_linear_567_11577)"/>
<path id="Vector_19" d="M38.2855 2.00488H34.7812V10.1832H38.2855V2.00488Z" fill="url(#paint14_linear_567_11577)"/>
<path id="Vector_20" d="M61.6683 15.0029H58.1641V23.1812H61.6683V15.0029Z" fill="url(#paint15_linear_567_11577)"/>
<path id="Vector_21" d="M131.657 10.916H128.152V19.0943H131.657V10.916Z" fill="url(#paint16_linear_567_11577)"/>
<path id="Vector_22" d="M14.7305 200.342V206.455C13.4934 206.256 12.328 206.052 11.2344 205.844V200.342H14.7305Z" fill="url(#paint17_linear_567_11577)"/>
<path id="Vector_23" d="M36.5392 192.313H33.8633V198.555H36.5392V192.313Z" fill="url(#paint18_linear_567_11577)"/>
<path id="Vector_24" d="M89.6017 1.37988H87.582V6.0916H89.6017V1.37988Z" fill="url(#paint19_linear_567_11577)"/>
<path id="Vector_25" d="M95.9416 188.989H93.9219V193.701H95.9416V188.989Z" fill="url(#paint20_linear_567_11577)"/>
<path id="Vector_26" d="M26.5511 170.437H23.0469V178.615H26.5511V170.437Z" fill="#6FC3A0"/>
<path id="Vector_27" d="M137.828 143.802H134.324V151.98H137.828V143.802Z" fill="#6FC3A0"/>
<path id="Vector_28" d="M9.96124 65.7656H6.45703V73.9439H9.96124V65.7656Z" fill="#6FC3A0"/>
<path id="Vector_29" d="M9.96124 179.896H6.45703V188.075H9.96124V179.896Z" fill="#6FC3A0"/>
<path id="Vector_30" d="M45.5627 180.816H43.543V185.528H45.5627V180.816Z" fill="#6FC3A0"/>
<path id="Vector_31" d="M82.9728 172.888H80.9531V177.599H82.9728V172.888Z" fill="#6FC3A0"/>
<path id="Vector_32" d="M131.922 155.57H129.902V160.282H131.922V155.57Z" fill="#6FC3A0"/>
<path id="Vector_33" d="M45.4153 70.1218C45.4153 70.1218 43.089 70.0008 44.517 75.4413C45.9451 80.8819 45.383 81.5784 39.0926 87.3632C32.8023 93.1479 23.1287 97.2142 24.7262 109.147C26.3237 121.079 99.6807 147.481 113.455 136.091C127.23 124.702 128.642 115.034 126.095 105.5C123.549 95.9663 108.491 94.0784 107.09 84.3323C105.689 74.5861 100.856 77.1921 97.6637 75.4575C94.4714 73.7228 95.488 72.4669 94.8856 68.7503C94.2832 65.0336 87.4254 49.5592 84.7844 48.0424C82.1435 46.5256 56.9122 45.1567 53.3192 52.9558C49.7263 60.7549 45.4153 70.1218 45.4153 70.1218Z" fill="url(#paint21_linear_567_11577)"/>
<path id="Vector_34" d="M89.499 78.599C89.4802 82.0951 89.3699 84.65 89.2301 85.0991C88.6922 86.7638 86.0755 89.1331 78.4539 91.7579C78.2361 91.8332 78.0075 91.9058 77.7735 91.9785C69.8346 94.4123 53.2333 94.8507 53.6583 92.7207C53.721 92.0376 53.7309 91.3507 53.6878 90.6661C53.6287 88.5576 53.4189 85.1233 53.15 81.291C52.994 79.0428 52.8165 76.6546 52.639 74.3203C52.0608 66.6906 51.4584 59.6042 51.4584 59.6042C51.4584 59.6042 50.5763 57.9234 55.1777 54.9732C57.0603 53.7684 59.8491 52.3538 63.988 50.7536C76.0255 46.1011 81.4014 48.422 84.79 50.3126C85.4193 50.6649 85.9814 51.0037 86.5058 51.2781C88.0549 52.0849 88.8643 59.1228 89.2328 66.5669C89.4479 70.7973 89.5205 75.162 89.499 78.599Z" fill="#F7AC86"/>
<path id="Vector_35" d="M52.6429 74.3188C52.0647 66.6891 51.4623 59.6027 51.4623 59.6027C51.4623 59.6027 50.5802 57.9219 55.1816 54.9717C55.1816 54.9717 56.0637 70.793 52.6429 74.3188Z" fill="url(#paint22_linear_567_11577)"/>
<path id="Vector_36" d="M89.2514 66.5668C85.4137 63.821 84.8758 53.9081 84.8086 50.3125C85.4379 50.6648 86 51.0037 86.5244 51.278C88.06 52.1036 88.8695 59.1228 89.2514 66.5668Z" fill="url(#paint23_linear_567_11577)"/>
<path id="Vector_37" d="M51.7501 63.0836C51.7501 63.0836 48.0442 62.2015 46.0594 65.4125C44.0747 68.6236 45.4355 75.3227 52.729 75.4491L51.7743 63.374L51.7501 63.0836Z" fill="#F7AC86"/>
<path id="Vector_38" d="M52.0314 66.5659C51.6022 66.2412 51.1059 66.0165 50.5787 65.9081C50.0516 65.7997 49.5068 65.8103 48.9843 65.9393C47.1153 66.3481 47.3492 68.7416 47.3492 68.7416C47.3492 68.7416 48.425 66.2836 52.19 68.4458L52.0314 66.5659Z" fill="#D27358"/>
<path id="Vector_39" d="M88.5898 58.4384C88.5898 58.4384 89.9345 56.6204 92.8928 57.3223C95.851 58.0242 96.908 66.38 89.3375 69.2119L88.5898 58.4384Z" fill="#F7AC86"/>
<path id="Vector_40" d="M88.8281 61.835C88.8281 61.835 89.8339 59.9067 91.6761 60.0815C93.5183 60.2563 93.1203 62.0985 93.1203 62.0985C93.1203 62.0985 92.2355 60.9152 90.993 62.0985C89.7506 63.2818 89.046 64.1128 89.046 64.1128L88.8281 61.835Z" fill="#D27358"/>
<path id="Vector_41" d="M58.5619 60.8568C58.5619 60.8568 59.4387 57.8985 61.9478 57.1616C64.457 56.4248 65.1616 58.0061 64.2848 58.4391C63.4081 58.8721 61.0146 60.2732 59.9631 61.2064C58.9115 62.1396 58.1424 61.8465 58.5619 60.8568Z" fill="url(#paint24_linear_567_11577)"/>
<path id="Vector_42" d="M83.3819 56.9652C83.3819 56.9652 81.8651 54.9267 79.6437 54.9724C77.4223 55.0182 77.7182 56.8146 78.4766 56.9652C79.235 57.1158 80.3457 56.7393 81.6312 57.1616C82.9167 57.5838 83.5002 57.6914 83.3819 56.9652Z" fill="url(#paint25_linear_567_11577)"/>
<path id="Vector_43" d="M63.8609 69.8548C64.2738 69.8548 64.6086 68.9577 64.6086 67.8512C64.6086 66.7447 64.2738 65.8477 63.8609 65.8477C63.448 65.8477 63.1133 66.7447 63.1133 67.8512C63.1133 68.9577 63.448 69.8548 63.8609 69.8548Z" fill="#08080E"/>
<path id="Vector_44" d="M71.7695 60.0723C71.7695 60.0723 76.968 73.7664 75.86 75.8103C74.752 77.8542 73.7085 76.8618 73.1142 74.7022C72.5199 72.5427 71.7695 60.0723 71.7695 60.0723Z" fill="#D27358"/>
<path id="Vector_45" d="M63.1782 73.1221H58.8403C58.1971 73.1221 57.6758 73.6428 57.6758 74.2852C57.6758 74.9276 58.1971 75.4483 58.8403 75.4483H63.1782C63.8213 75.4483 64.3426 74.9276 64.3426 74.2852C64.3426 73.6428 63.8213 73.1221 63.1782 73.1221Z" fill="#EC7571"/>
<path id="Vector_46" d="M84.7512 71.0237L80.4574 71.6402C79.8208 71.7316 79.3787 72.3211 79.47 72.957C79.5613 73.5929 80.1513 74.0342 80.7879 73.9428L85.0818 73.3264C85.7184 73.235 86.1605 72.6454 86.0692 72.0096C85.9779 71.3737 85.3878 70.9323 84.7512 71.0237Z" fill="#EC7571"/>
<path id="Vector_47" d="M92.8049 51.8045C92.8049 51.8045 78.3927 44.0807 64.5319 48.0394C50.671 51.9981 49.2376 63.0997 49.2376 63.0997C49.2376 63.0997 41.7371 59.4664 39.634 52.2616C37.5309 45.0569 41.6537 36.209 49.7567 34.5443C53.3523 33.8047 56.3536 33.9473 59.0376 33.9258C61.5306 33.9069 63.7493 33.7483 65.9223 32.6187C66.7431 32.1888 67.5074 31.6586 68.1974 31.0401C73.4551 26.3956 76.8302 24.1177 82.7656 24.2926C88.7009 24.4674 103.742 31.4811 92.8049 51.8045Z" fill="#6FC3A0"/>
<path id="Vector_48" d="M113.455 152.797C113.455 154.553 113.406 158.66 113.345 163.151C113.24 170.891 113.097 179.782 113.097 179.782L109.367 181.067L109.251 175.688L105.629 176.272V171.02L100.955 171.138V179.206H96.5173V175.226H92.9056V181.535H88.5838V167.634H82.9765V163.441H78.0685V168.685H73.1631V176.753H69.3093V174.064H65.9208V190.184H61.2467V187.495H57.678V191.351H54.2383V179.9H50.726V171.956H47.9291V166.114H50.0322V159.222H46.294V156.18H43.0238V175.221H38.5837V163.777H35.663V158.216L27.7188 101.412L28.1464 101.205C30.279 100.188 39.8369 95.678 44.5137 94.3576C49.7982 92.8677 93.7285 86.814 102.275 91.7462C107.864 94.9734 110.932 118.086 112.382 135.01C113.148 143.938 113.455 151.143 113.455 152.797Z" fill="#6FC3A0"/>
<path id="Vector_49" d="M46.79 93.2492C46.79 93.2492 44.9774 93.2492 44.539 95C44.1006 96.7507 48.9092 100.51 61.7131 101.317C74.517 102.124 87.45 98.2514 92.8045 95.008C98.159 91.7647 97.9842 88.7876 97.3764 87.9109C96.7686 87.0341 94.4853 87.373 94.4853 87.373C94.4853 87.373 65.3141 98.765 58.2062 97.4499C51.0983 96.1349 46.79 93.2492 46.79 93.2492Z" fill="white"/>
<path id="Vector_50" d="M89.4975 78.5986C89.4787 82.0948 89.3684 84.6496 89.2286 85.0988C88.6907 86.7635 86.074 89.1328 78.4524 91.7576C78.2346 91.8329 78.006 91.9055 77.772 91.9781C71.3445 92.5401 64.6561 93.0135 61.5472 92.8682C58.7988 92.7093 56.1172 91.958 53.6863 90.6657C53.6271 88.5572 53.4174 85.123 53.1484 81.2907C53.1484 81.2907 54.7862 88.7912 62.4105 89.6626C70.0348 90.5339 83.3873 88.2534 83.3873 88.2534C83.3873 88.2534 87.5612 84.0822 89.4975 78.5986Z" fill="#EC7571"/>
<path id="Vector_51" d="M92.3477 55.4112C92.1111 56.4627 91.869 57.17 91.869 57.17C89.3115 57.1055 88.5934 58.4394 88.5934 58.4394L88.3245 56.5569C88.0556 54.6743 81.3887 49.5942 68.2486 51.9285C55.1085 54.2629 51.6904 62.4465 51.6904 62.4465L51.7441 63.0946C50.9957 62.9466 50.2255 62.9466 49.477 63.0946C49.391 63.1081 49.3291 63.1215 49.2942 63.1296H49.2646L49.235 63.1108C49.0978 63.0166 48.4954 62.5191 47.5757 60.5774C46.5242 58.3587 45.9406 53.6255 49.754 49.6533C53.5675 45.6812 65.8578 41.5342 75.6712 41.4186C85.4846 41.303 89.7471 45.0976 91.8637 48.0424C93.2702 49.9787 92.8157 53.3539 92.3477 55.4112Z" fill="#FABC68"/>
<path id="Vector_52" d="M92.3463 55.4125C91.4857 55.2753 90.8671 55.0091 91.0016 54.5223C91.37 53.1211 91.3351 51.2789 88.5973 51.2789C85.8596 51.2789 87.2177 49.703 86.6018 47.2449C85.986 44.7869 83.3612 45.5802 81.4329 46.976C79.5047 48.3718 77.13 47.3256 74.949 44.873C72.7679 42.4203 68.543 43.9209 67.486 46.7259C66.4291 49.5309 64.0814 49.4421 59.9559 48.829C55.8305 48.2158 54.4374 50.0553 53.3348 52.9463C52.2321 55.8374 51.0246 54.7939 49.7176 56.2354C48.4106 57.6769 48.5639 58.4648 49.7499 60.7427C50.6562 62.4881 49.887 62.9533 49.4809 63.0771C49.4211 63.0937 49.3599 63.1054 49.2981 63.112H49.2685L49.2389 63.0932C49.1018 62.9991 48.4993 62.5015 47.5796 60.5598C46.5281 58.3411 45.9445 53.6079 49.7579 49.6358C53.5714 45.6636 65.8617 41.5167 75.6751 41.401C85.4885 41.2854 89.7511 45.08 91.8676 48.0249C93.2687 49.98 92.8142 53.3551 92.3463 55.4125Z" fill="#CEEAE9"/>
<path id="Vector_53" opacity="0.4" d="M56.9787 137.161C56.5431 138.737 51.3688 148.54 46.294 156.995V156.188H43.0238V162.252C41.3295 164.867 39.7777 167.05 38.5837 168.387V163.777H35.663V158.216L27.7188 101.412L28.1464 101.205C33.4336 100.75 39.6083 102.167 41.827 110.311C45.9928 125.605 51.28 121.506 52.7296 123.488C54.1791 125.47 57.6753 134.638 56.9787 137.161Z" fill="#364E4C"/>
<path id="Vector_54" opacity="0.4" d="M65.922 32.6191C65.922 32.6191 59.3465 38.221 53.9141 39.8803C53.9141 39.8803 57.1843 37.5998 59.0373 33.9181C61.5303 33.9073 63.749 33.7487 65.922 32.6191Z" fill="#364E4C"/>
<path id="Vector_55" d="M50.2395 86.237C50.2395 86.237 56.46 89.9107 72.4938 87.3719C88.5276 84.8332 88.4469 81.3371 91.5047 81.2913C94.5625 81.2456 95.891 86.151 95.1434 88.9479C94.3957 91.7448 91.1094 95.1683 79.435 97.8845C67.7606 100.601 57.0624 99.724 52.7325 97.8845C48.4027 96.045 46.6788 96.478 46.7945 93.2508C46.9101 90.0236 48.1365 84.5723 50.2395 86.237Z" fill="#CEEAE9"/>
<path id="Vector_56" d="M56.1031 94.9991C57.2646 94.9991 58.2061 94.0575 58.2061 92.896C58.2061 91.7345 57.2646 90.793 56.1031 90.793C54.9416 90.793 54 91.7345 54 92.896C54 94.0575 54.9416 94.9991 56.1031 94.9991Z" fill="#FABC68"/>
<path id="Vector_57" d="M53.0427 141.349C49.8881 145.905 37.6167 162.636 23.253 161.764C8.88921 160.893 13.0012 129.433 16.8577 119.972C18.2373 116.583 19.6519 113.23 21.0988 110.328C23.694 105.129 26.3968 101.372 29.2071 101.418C29.2071 101.418 35.6911 98.9494 37.7054 110.164C39.7198 121.378 37.7054 127.949 37.7054 127.949C37.7054 127.949 47.5188 125.057 49.4471 124.794C51.3753 124.53 53.3896 127.335 54.0916 129.35C54.7935 131.364 56.1973 136.794 53.0427 141.349Z" fill="#6FC3A0"/>
<path id="Vector_58" d="M37.7093 127.942C37.7093 127.942 38.586 126.452 34.8183 126.363C31.0505 126.274 21.6755 129.432 15.8934 133.724C10.1113 138.016 11.932 142.733 11.932 142.733C11.932 142.733 21.9471 127.907 37.7093 127.942Z" fill="#CEEAE9"/>
<path id="Vector_59" d="M37.7062 127.943C37.7062 127.943 36.9182 126.015 29.1191 128.731C21.3201 131.447 13.8733 138.106 12.2974 141.699C10.7214 145.292 12.9778 147.037 12.9778 147.037C12.9778 147.037 19.2251 137.138 22.2855 134.333C25.346 131.528 32.8869 127.943 37.7062 127.943Z" fill="white"/>
<path id="Vector_60" d="M73.9805 100.781C73.9805 100.781 80.9297 135.205 78.0683 168.684" stroke="#364E4C" stroke-width="0.5" stroke-miterlimit="10"/>
<path id="Vector_61" opacity="0.4" d="M113.459 152.797C113.459 154.553 113.411 158.66 113.349 163.151C101.113 157.404 91.2695 137.161 91.2695 137.161C96.3954 121.509 108.661 131.514 112.375 135.01C113.153 143.938 113.459 151.143 113.459 152.797Z" fill="#364E4C"/>
<path id="Vector_62" d="M37.7048 127.942C37.7048 127.942 18.1694 131.976 14.0064 151.203C14.0064 151.203 10.72 148.268 15.8889 140.209C21.0578 132.149 32.2723 127.241 37.7048 127.942Z" fill="#CEEAE9"/>
<path id="Vector_63" d="M30.0855 113.487C29.8166 115.765 29.034 120.406 27.458 120.933C26.229 121.342 19.6375 121.06 16.8594 119.965C18.239 116.577 19.6536 113.223 21.1005 110.321C21.1005 110.321 24.9946 110.956 27.2725 110.956C29.5503 110.956 30.3545 111.209 30.0855 113.487Z" fill="#CEEAE9"/>
<path id="Vector_64" d="M24.7267 117.479C25.4322 117.479 26.0041 116.907 26.0041 116.201C26.0041 115.496 25.4322 114.924 24.7267 114.924C24.0211 114.924 23.4492 115.496 23.4492 116.201C23.4492 116.907 24.0211 117.479 24.7267 117.479Z" fill="white"/>
<path id="Vector_65" d="M122.81 141.12C118.954 158.41 113.113 158.994 103.883 149.188C94.6532 139.383 99.6715 118.699 98.862 110.325C98.0525 101.95 101.551 91.7119 101.551 91.7119C105.203 91.806 108.683 94.1027 111.755 97.7549C113.706 100.14 115.378 102.74 116.738 105.506C122.195 116.298 125.037 131.124 122.81 141.12Z" fill="#6FC3A0"/>
<path id="Vector_66" opacity="0.4" d="M99.6734 102.628C99.6734 102.628 106.69 108.042 109.726 112.371C112.762 116.701 113.454 124.758 113.454 124.758C113.454 124.758 101.889 115.647 96.6317 114.362C91.3741 113.076 99.6734 102.628 99.6734 102.628Z" fill="#364E4C"/>
<path id="Vector_67" d="M99.6747 102.627V145.118C99.6747 146.023 99.3154 146.89 98.6759 147.529C98.0364 148.169 97.169 148.528 96.2646 148.528H62.0885C61.1839 148.528 60.3162 148.169 59.6763 147.53C59.0364 146.89 58.6765 146.023 58.6758 145.118V102.627C58.6758 101.722 59.0353 100.853 59.6754 100.213C60.3154 99.5734 61.1834 99.2139 62.0885 99.2139H96.27C97.1737 99.216 98.0397 99.5765 98.678 100.216C99.3163 100.856 99.6747 101.723 99.6747 102.627Z" fill="#EC7571"/>
<path id="Vector_68" d="M113.455 124.759C113.455 124.759 111.995 123.005 114.975 123.634C117.955 124.264 121.37 126.891 124.086 133.639C126.803 140.386 123.137 142.223 123.137 142.223C123.137 142.223 121.322 128.322 113.455 124.759Z" fill="#CEEAE9"/>
<path id="Vector_69" opacity="0.4" d="M99.6747 119.231V145.124C99.6747 146.029 99.3154 146.896 98.6759 147.536C98.0364 148.175 97.169 148.534 96.2646 148.534H62.0885C61.1839 148.534 60.3162 148.175 59.6763 147.536C59.0364 146.896 58.6765 146.029 58.6758 145.124V138.67C66.7895 141.359 76.4012 142.258 81.7341 134.566C87.4947 126.237 93.8657 121.563 99.6747 119.231Z" fill="#364E4C"/>
<path id="Vector_70" d="M79.1721 117.478C80.5831 117.478 81.7269 116.334 81.7269 114.923C81.7269 113.512 80.5831 112.368 79.1721 112.368C77.761 112.368 76.6172 113.512 76.6172 114.923C76.6172 116.334 77.761 117.478 79.1721 117.478Z" fill="#FABC68"/>
<path id="Vector_71" d="M116.736 105.491C114.918 107.357 111.871 108.941 110.895 109.105C109.494 109.339 108.617 108.812 107.506 105.717C106.396 102.621 105.403 101.336 107.915 100.11C109.257 99.4258 110.54 98.6334 111.753 97.7402C113.705 100.125 115.377 102.725 116.736 105.491Z" fill="#CEEAE9"/>
<path id="Vector_72" d="M110.372 104.62C111.019 104.62 111.544 104.096 111.544 103.448C111.544 102.8 111.019 102.275 110.372 102.275C109.724 102.275 109.199 102.8 109.199 103.448C109.199 104.096 109.724 104.62 110.372 104.62Z" fill="#EC7571"/>
<path id="Vector_73" d="M113.454 124.759C113.454 124.759 112.695 123.11 116.285 124.737C119.876 126.364 124.085 135.04 124.085 139.684C124.085 144.329 121.86 145.811 121.86 145.811C121.86 145.811 121.019 134.784 118.302 130.57C115.586 126.356 113.454 124.759 113.454 124.759Z" fill="white"/>
<path id="Vector_74" d="M113.453 124.759C113.453 124.759 123.804 138.757 119.738 150.609C119.738 150.609 122.683 148.708 121.981 140.035C121.279 131.362 115.712 124.291 113.453 124.759Z" fill="#CEEAE9"/>
<path id="Vector_75" d="M97.633 115.004C97.633 115.004 104.819 116.184 105.037 122.187C105.255 128.19 101.051 128.846 99.4671 127.531C97.8831 126.216 97.0144 125.955 96.0059 125.823C94.9974 125.691 94.2094 125.121 95.3927 124.29C96.576 123.459 97.4097 123.669 97.4097 123.669C97.4097 123.669 95.5675 122.83 94.0803 123.669C92.5931 124.508 92.7061 122.257 93.8894 121.517C95.0727 120.778 97.7163 121.074 97.7163 121.074C97.7163 121.074 97.633 120.442 95.3363 120.323C92.9589 120.202 91.8267 120.538 92.1359 119.53C92.4452 118.521 93.2466 117.416 95.5675 117.594L97.8911 117.768C97.8911 117.768 96.0086 116.628 94.2551 116.717C92.5017 116.806 92.8244 115.235 94.5241 114.928C94.5375 114.923 96.4443 114.705 97.633 115.004Z" fill="#F7AC86"/>
<path id="Vector_76" d="M68.3283 198.57H66.3086V203.282H68.3283V198.57Z" fill="#6FC3A0"/>
<path id="Vector_77" d="M17.6367 159.139C17.6367 159.139 33.2349 161.576 55.0185 134.548" stroke="#364E4C" stroke-width="0.5" stroke-miterlimit="10"/>
<path id="Vector_78" d="M102.375 127.874C102.375 127.874 106.565 158.121 118.748 152.347" stroke="#364E4C" stroke-width="0.5" stroke-miterlimit="10"/>
<path id="Vector_79" d="M63.8635 66.9028C64.0492 66.9028 64.1997 66.7523 64.1997 66.5666C64.1997 66.381 64.0492 66.2305 63.8635 66.2305C63.6779 66.2305 63.5273 66.381 63.5273 66.5666C63.5273 66.7523 63.6779 66.9028 63.8635 66.9028Z" fill="white"/>
<path id="Vector_80" d="M80.5992 67.4212C81.0121 67.4212 81.3468 66.5242 81.3468 65.4176C81.3468 64.3111 81.0121 63.4141 80.5992 63.4141C80.1863 63.4141 79.8516 64.3111 79.8516 65.4176C79.8516 66.5242 80.1863 67.4212 80.5992 67.4212Z" fill="#08080E"/>
<path id="Vector_81" d="M80.5979 64.4721C80.7835 64.4721 80.9341 64.3216 80.9341 64.136C80.9341 63.9503 80.7835 63.7998 80.5979 63.7998C80.4122 63.7998 80.2617 63.9503 80.2617 64.136C80.2617 64.3216 80.4122 64.4721 80.5979 64.4721Z" fill="white"/>
<path id="Vector_82" d="M58.3533 122.158C58.3533 122.158 51.1674 123.339 50.9496 129.341C50.7317 135.344 54.9352 136 56.5111 134.685C58.0871 133.37 58.9665 133.109 59.9723 132.977C60.9781 132.846 61.7688 132.275 60.5855 131.444C59.4021 130.613 58.5711 130.823 58.5711 130.823C58.5711 130.823 60.4106 129.984 61.9005 130.823C63.3904 131.662 63.2721 129.411 62.0915 128.672C60.9109 127.932 58.2646 128.212 58.2646 128.212C58.2646 128.212 58.3479 127.58 60.6419 127.461C63.0193 127.34 64.1515 127.677 63.8449 126.668C63.5383 125.66 62.7342 124.557 60.4106 124.732L58.0897 124.907C58.0897 124.907 59.9723 123.766 61.7257 123.855C63.4792 123.944 63.1565 122.373 61.4568 122.067C61.4487 122.077 59.542 121.86 58.3533 122.158Z" fill="#F7AC86"/>
<path id="Vector_83" d="M72.0565 82.4928C72.032 82.7461 71.9255 82.9846 71.7532 83.1719C71.5809 83.3592 71.3522 83.4853 71.1018 83.5309C70.2412 83.7649 68.867 83.5551 67.2157 83.3131C64.8168 82.9608 62.6439 82.6649 62.3884 81.5085C62.3549 81.3675 62.3504 81.2211 62.3749 81.0782C62.5954 79.5534 64.9459 78.6363 67.6191 79.0263C70.2923 79.4162 72.2797 80.9653 72.0565 82.4928Z" fill="url(#paint26_linear_567_11577)"/>
<path id="Vector_84" d="M71.1041 83.5249C70.2435 83.7589 68.8692 83.5491 67.218 83.307C64.8191 82.9547 62.6461 82.6589 62.3906 81.5025C63.3588 80.8329 64.9724 80.5263 66.7231 80.7844C68.9687 81.1125 70.7303 82.2609 71.1041 83.5249Z" fill="#EC7571"/>
</g>
<defs>
<linearGradient id="paint0_linear_567_11577" x1="21.2964" y1="40.1759" x2="21.2964" y2="30.6099" gradientUnits="userSpaceOnUse">
<stop stop-color="#44685E"/>
<stop offset="0.87" stop-color="#1B232A"/>
</linearGradient>
<linearGradient id="paint1_linear_567_11577" x1="1693.46" y1="2297.62" x2="1760.92" y2="1976.23" gradientUnits="userSpaceOnUse">
<stop stop-color="#44685E"/>
<stop offset="0.87" stop-color="#1B232A"/>
</linearGradient>
<linearGradient id="paint2_linear_567_11577" x1="147.581" y1="923.759" x2="147.581" y2="783.633" gradientUnits="userSpaceOnUse">
<stop stop-color="#44685E"/>
<stop offset="0.87" stop-color="#1B232A"/>
</linearGradient>
<linearGradient id="paint3_linear_567_11577" x1="318.566" y1="1799.59" x2="318.566" y2="1676.47" gradientUnits="userSpaceOnUse">
<stop stop-color="#44685E"/>
<stop offset="0.87" stop-color="#1B232A"/>
</linearGradient>
<linearGradient id="paint4_linear_567_11577" x1="1054.25" y1="794.653" x2="1054.25" y2="659.427" gradientUnits="userSpaceOnUse">
<stop stop-color="#44685E"/>
<stop offset="0.87" stop-color="#1B232A"/>
</linearGradient>
<linearGradient id="paint5_linear_567_11577" x1="1227.93" y1="1337.28" x2="1227.93" y2="1152.48" gradientUnits="userSpaceOnUse">
<stop stop-color="#44685E"/>
<stop offset="0.87" stop-color="#1B232A"/>
</linearGradient>
<linearGradient id="paint6_linear_567_11577" x1="1187.02" y1="1913.36" x2="1187.02" y2="1749.91" gradientUnits="userSpaceOnUse">
<stop stop-color="#44685E"/>
<stop offset="0.87" stop-color="#1B232A"/>
</linearGradient>
<linearGradient id="paint7_linear_567_11577" x1="50.9097" y1="209.854" x2="50.9097" y2="189.361" gradientUnits="userSpaceOnUse">
<stop stop-color="white"/>
<stop offset="0.38" stop-color="#9AD2B6"/>
<stop offset="0.99" stop-color="#5F9E85"/>
</linearGradient>
<linearGradient id="paint8_linear_567_11577" x1="9336.61" y1="22684" x2="9336.61" y2="19809.3" gradientUnits="userSpaceOnUse">
<stop stop-color="white"/>
<stop offset="0.38" stop-color="#9AD2B6"/>
<stop offset="0.99" stop-color="#5F9E85"/>
</linearGradient>
<linearGradient id="paint9_linear_567_11577" x1="4260.87" y1="15416.8" x2="4260.87" y2="14090.9" gradientUnits="userSpaceOnUse">
<stop stop-color="white"/>
<stop offset="0.38" stop-color="#9AD2B6"/>
<stop offset="0.99" stop-color="#5F9E85"/>
</linearGradient>
<linearGradient id="paint10_linear_567_11577" x1="686" y1="4575.09" x2="686" y2="4465.25" gradientUnits="userSpaceOnUse">
<stop stop-color="white"/>
<stop offset="0.38" stop-color="#9AD2B6"/>
<stop offset="0.99" stop-color="#5F9E85"/>
</linearGradient>
<linearGradient id="paint11_linear_567_11577" x1="1250.41" y1="6178.73" x2="1250.41" y2="5930.03" gradientUnits="userSpaceOnUse">
<stop stop-color="white"/>
<stop offset="0.38" stop-color="#9AD2B6"/>
<stop offset="0.99" stop-color="#5F9E85"/>
</linearGradient>
<linearGradient id="paint12_linear_567_11577" x1="1674.89" y1="6287.61" x2="1674.89" y2="6038.91" gradientUnits="userSpaceOnUse">
<stop stop-color="white"/>
<stop offset="0.38" stop-color="#9AD2B6"/>
<stop offset="0.99" stop-color="#5F9E85"/>
</linearGradient>
<linearGradient id="paint13_linear_567_11577" x1="1992.14" y1="6129.82" x2="1992.14" y2="5881.12" gradientUnits="userSpaceOnUse">
<stop stop-color="white"/>
<stop offset="0.38" stop-color="#9AD2B6"/>
<stop offset="0.99" stop-color="#5F9E85"/>
</linearGradient>
<linearGradient id="paint14_linear_567_11577" x1="725.004" y1="294.051" x2="725.004" y2="542.752" gradientUnits="userSpaceOnUse">
<stop stop-color="white"/>
<stop offset="0.38" stop-color="#9AD2B6"/>
<stop offset="0.99" stop-color="#5F9E85"/>
</linearGradient>
<linearGradient id="paint15_linear_567_11577" x1="1053.11" y1="702.386" x2="1053.11" y2="951.088" gradientUnits="userSpaceOnUse">
<stop stop-color="white"/>
<stop offset="0.38" stop-color="#9AD2B6"/>
<stop offset="0.99" stop-color="#5F9E85"/>
</linearGradient>
<linearGradient id="paint16_linear_567_11577" x1="2035" y1="573.99" x2="2035" y2="822.609" gradientUnits="userSpaceOnUse">
<stop stop-color="white"/>
<stop offset="0.38" stop-color="#9AD2B6"/>
<stop offset="0.99" stop-color="#5F9E85"/>
</linearGradient>
<linearGradient id="paint17_linear_567_11577" x1="393.677" y1="5065.81" x2="393.677" y2="4926.86" gradientUnits="userSpaceOnUse">
<stop stop-color="white"/>
<stop offset="0.38" stop-color="#9AD2B6"/>
<stop offset="0.99" stop-color="#5F9E85"/>
</linearGradient>
<linearGradient id="paint18_linear_567_11577" x1="547.634" y1="4977.21" x2="547.634" y2="4832.33" gradientUnits="userSpaceOnUse">
<stop stop-color="white"/>
<stop offset="0.38" stop-color="#9AD2B6"/>
<stop offset="0.99" stop-color="#5F9E85"/>
</linearGradient>
<linearGradient id="paint19_linear_567_11577" x1="876.37" y1="158.704" x2="876.37" y2="241.253" gradientUnits="userSpaceOnUse">
<stop stop-color="white"/>
<stop offset="0.38" stop-color="#9AD2B6"/>
<stop offset="0.99" stop-color="#5F9E85"/>
</linearGradient>
<linearGradient id="paint20_linear_567_11577" x1="930.338" y1="3715.81" x2="930.338" y2="3633.26" gradientUnits="userSpaceOnUse">
<stop stop-color="white"/>
<stop offset="0.38" stop-color="#9AD2B6"/>
<stop offset="0.99" stop-color="#5F9E85"/>
</linearGradient>
<linearGradient id="paint21_linear_567_11577" x1="35224.3" y1="60653.9" x2="35224.3" y2="7771.11" gradientUnits="userSpaceOnUse">
<stop stop-color="#44685E"/>
<stop offset="0.87" stop-color="#1B232A"/>
</linearGradient>
<linearGradient id="paint22_linear_567_11577" x1="1060.49" y1="6368.89" x2="1060.49" y2="4481" gradientUnits="userSpaceOnUse">
<stop stop-color="#44685E"/>
<stop offset="0.87" stop-color="#1B232A"/>
</linearGradient>
<linearGradient id="paint23_linear_567_11577" x1="1793.9" y1="5354.92" x2="1793.9" y2="3768.82" gradientUnits="userSpaceOnUse">
<stop stop-color="#44685E"/>
<stop offset="0.87" stop-color="#1B232A"/>
</linearGradient>
<linearGradient id="paint24_linear_567_11577" x1="1784.68" y1="1253.2" x2="1927.58" y2="1253.2" gradientUnits="userSpaceOnUse">
<stop stop-color="#44685E"/>
<stop offset="0.87" stop-color="#1B232A"/>
</linearGradient>
<linearGradient id="paint25_linear_567_11577" x1="2000.3" y1="653.829" x2="2111.9" y2="653.829" gradientUnits="userSpaceOnUse">
<stop stop-color="#44685E"/>
<stop offset="0.87" stop-color="#1B232A"/>
</linearGradient>
<linearGradient id="paint26_linear_567_11577" x1="3311.59" y1="1643.41" x2="2903.51" y2="1529.53" gradientUnits="userSpaceOnUse">
<stop stop-color="#44685E"/>
<stop offset="0.87" stop-color="#1B232A"/>
</linearGradient>
</defs>
</svg>
