<svg width="40" height="40" viewBox="0 0 40 40" fill="none" xmlns="http://www.w3.org/2000/svg">
<g id="Component 7">
<rect id="Rectangle 45" opacity="0.1" width="40" height="40" rx="20" fill="#DD4B4B"/>
<path id="L/S" d="M13.9506 17.955C13.9206 18.005 13.889 18.0433 13.8556 18.07C13.8223 18.0933 13.779 18.105 13.7256 18.105C13.669 18.105 13.6023 18.0767 13.5256 18.02C13.4523 17.9633 13.3573 17.9017 13.2406 17.835C13.1273 17.765 12.989 17.7017 12.8256 17.645C12.6656 17.5883 12.4706 17.56 12.2406 17.56C12.024 17.56 11.8323 17.59 11.6656 17.65C11.499 17.7067 11.359 17.785 11.2456 17.885C11.1356 17.985 11.0523 18.1033 10.9956 18.24C10.939 18.3733 10.9106 18.5183 10.9106 18.675C10.9106 18.875 10.959 19.0417 11.0556 19.175C11.1556 19.305 11.2856 19.4167 11.4456 19.51C11.609 19.6033 11.7923 19.685 11.9956 19.755C12.2023 19.8217 12.4123 19.8917 12.6256 19.965C12.8423 20.0383 13.0523 20.1217 13.2556 20.215C13.4623 20.305 13.6456 20.42 13.8056 20.56C13.969 20.7 14.099 20.8717 14.1956 21.075C14.2956 21.2783 14.3456 21.5283 14.3456 21.825C14.3456 22.1383 14.2923 22.4333 14.1856 22.71C14.079 22.9833 13.9223 23.2217 13.7156 23.425C13.5123 23.6283 13.2606 23.7883 12.9606 23.905C12.664 24.0217 12.3256 24.08 11.9456 24.08C11.4823 24.08 11.059 23.9967 10.6756 23.83C10.2956 23.66 9.97064 23.4317 9.70064 23.145L9.98064 22.685C10.0073 22.6483 10.039 22.6183 10.0756 22.595C10.1156 22.5683 10.159 22.555 10.2056 22.555C10.2756 22.555 10.3556 22.5933 10.4456 22.67C10.5356 22.7433 10.6473 22.825 10.7806 22.915C10.9173 23.005 11.0806 23.0883 11.2706 23.165C11.464 23.2383 11.699 23.275 11.9756 23.275C12.2056 23.275 12.4106 23.2433 12.5906 23.18C12.7706 23.1167 12.9223 23.0283 13.0456 22.915C13.1723 22.7983 13.269 22.66 13.3356 22.5C13.4023 22.34 13.4356 22.1617 13.4356 21.965C13.4356 21.7483 13.3856 21.5717 13.2856 21.435C13.189 21.295 13.0606 21.1783 12.9006 21.085C12.7406 20.9917 12.5573 20.9133 12.3506 20.85C12.1473 20.7833 11.9373 20.7167 11.7206 20.65C11.5073 20.58 11.2973 20.5 11.0906 20.41C10.8873 20.32 10.7056 20.2033 10.5456 20.06C10.3856 19.9167 10.2556 19.7383 10.1556 19.525C10.059 19.3083 10.0106 19.0417 10.0106 18.725C10.0106 18.4717 10.059 18.2267 10.1556 17.99C10.2556 17.7533 10.399 17.5433 10.5856 17.36C10.7723 17.1767 11.0023 17.03 11.2756 16.92C11.5523 16.81 11.869 16.755 12.2256 16.755C12.6256 16.755 12.9906 16.8183 13.3206 16.945C13.6506 17.0717 13.939 17.255 14.1856 17.495L13.9506 17.955ZM20.2624 16.835V17.625H16.8224V20.005H19.6074V20.765H16.8224V23.21H20.2624V24H15.8474V16.835H20.2624ZM22.8919 23.185H25.9919V24H21.9219V16.835H22.8919V23.185ZM28.2926 23.185H31.3926V24H27.3226V16.835H28.2926V23.185Z" fill="#DD4B4B"/>
</g>
</svg>
